<?xml version="1.0" encoding="UTF-8"?><svg xmlns="http://www.w3.org/2000/svg" xmlns:xlink="http://www.w3.org/1999/xlink" contentScriptType="text/ecmascript" width="375" zoomAndPan="magnify" contentStyleType="text/css" viewBox="0 0 375 187.499995" height="187.499995" preserveAspectRatio="xMidYMid meet" version="1.0"><defs><clipPath id="clip-0"><path d="M 0.5 80 L 14 80 L 14 106 L 0.5 106 Z M 0.5 80 " clip-rule="nonzero"/></clipPath><clipPath id="clip-1"><path d="M 169 8.882812 L 182 8.882812 L 182 177.933594 L 169 177.933594 Z M 169 8.882812 " clip-rule="nonzero"/></clipPath><clipPath id="clip-2"><path d="M 361 82 L 374.5 82 L 374.5 105 L 361 105 Z M 361 82 " clip-rule="nonzero"/></clipPath></defs><g clip-path="url(#clip-0)"><path fill="rgb(0%, 0%, 0%)" d="M 6.929688 80.882812 C 3.496094 80.882812 0.703125 83.664062 0.703125 87.101562 L 0.703125 99.6875 C 0.703125 103.121094 3.496094 105.90625 6.929688 105.90625 C 10.367188 105.90625 13.15625 103.121094 13.15625 99.6875 L 13.15625 87.101562 C 13.15625 83.664062 10.367188 80.882812 6.929688 80.882812 Z M 6.929688 80.882812 " fill-opacity="1" fill-rule="nonzero"/></g><path fill="rgb(0%, 0%, 0%)" d="M 31.007812 39.191406 C 27.570312 39.191406 24.78125 41.976562 24.78125 45.414062 L 24.78125 141.375 C 24.78125 144.8125 27.570312 147.59375 31.007812 147.59375 C 34.445312 147.59375 37.234375 144.8125 37.234375 141.375 L 37.234375 45.414062 C 37.234375 41.976562 34.445312 39.191406 31.007812 39.191406 Z M 31.007812 39.191406 " fill-opacity="1" fill-rule="nonzero"/><path fill="rgb(0%, 0%, 0%)" d="M 55.082031 60.507812 C 51.644531 60.507812 48.855469 63.292969 48.855469 66.726562 L 48.855469 120.058594 C 48.855469 123.496094 51.644531 126.277344 55.082031 126.277344 C 58.519531 126.277344 61.308594 123.496094 61.308594 120.058594 L 61.308594 66.726562 C 61.308594 63.292969 58.519531 60.507812 55.082031 60.507812 Z M 55.082031 60.507812 " fill-opacity="1" fill-rule="nonzero"/><path fill="rgb(0%, 0%, 0%)" d="M 79.160156 20.058594 C 75.722656 20.058594 72.933594 22.84375 72.933594 26.28125 L 72.933594 160.507812 C 72.933594 163.945312 75.722656 166.726562 79.160156 166.726562 C 82.597656 166.726562 85.386719 163.945312 85.386719 160.507812 L 85.386719 26.28125 C 85.386719 22.84375 82.597656 20.058594 79.160156 20.058594 Z M 79.160156 20.058594 " fill-opacity="1" fill-rule="nonzero"/><path fill="rgb(0%, 0%, 0%)" d="M 103.234375 76.808594 C 99.796875 76.808594 97.007812 79.59375 97.007812 83.027344 L 97.007812 103.761719 C 97.007812 107.195312 99.796875 109.980469 103.234375 109.980469 C 106.671875 109.980469 109.460938 107.195312 109.460938 103.761719 L 109.460938 83.027344 C 109.460938 79.59375 106.671875 76.808594 103.234375 76.808594 Z M 103.234375 76.808594 " fill-opacity="1" fill-rule="nonzero"/><path fill="rgb(0%, 0%, 0%)" d="M 127.3125 40.335938 C 123.875 40.335938 121.085938 43.117188 121.085938 46.554688 L 121.085938 140.234375 C 121.085938 143.667969 123.875 146.453125 127.3125 146.453125 C 130.746094 146.453125 133.539062 143.667969 133.539062 140.234375 L 133.539062 46.554688 C 133.539062 43.117188 130.746094 40.335938 127.3125 40.335938 Z M 127.3125 40.335938 " fill-opacity="1" fill-rule="nonzero"/><path fill="rgb(0%, 0%, 0%)" d="M 151.875 20.058594 C 151.863281 20.058594 151.847656 20.058594 151.835938 20.058594 C 148.414062 20.058594 145.632812 22.816406 145.609375 26.238281 L 144.710938 160.46875 C 144.6875 163.898438 147.457031 166.707031 150.898438 166.726562 C 150.910156 166.726562 150.925781 166.726562 150.9375 166.726562 C 154.359375 166.726562 157.140625 163.96875 157.164062 160.550781 L 158.0625 26.320312 C 158.085938 22.886719 155.316406 20.082031 151.875 20.058594 Z M 151.875 20.058594 " fill-opacity="1" fill-rule="nonzero"/><g clip-path="url(#clip-1)"><path fill="rgb(0%, 0%, 0%)" d="M 175.460938 8.882812 C 172.023438 8.882812 169.234375 11.667969 169.234375 15.101562 L 169.234375 171.6875 C 169.234375 175.121094 172.023438 177.90625 175.460938 177.90625 C 178.898438 177.90625 181.6875 175.121094 181.6875 171.6875 L 181.6875 15.101562 C 181.6875 11.667969 178.898438 8.882812 175.460938 8.882812 Z M 175.460938 8.882812 " fill-opacity="1" fill-rule="nonzero"/></g><path fill="rgb(0%, 0%, 0%)" d="M 199.539062 46.625 C 196.101562 46.625 193.3125 49.410156 193.3125 52.84375 L 193.3125 133.941406 C 193.3125 137.378906 196.101562 140.164062 199.539062 140.164062 C 202.976562 140.164062 205.765625 137.378906 205.765625 133.941406 L 205.765625 52.84375 C 205.765625 49.410156 202.976562 46.625 199.539062 46.625 Z M 199.539062 46.625 " fill-opacity="1" fill-rule="nonzero"/><path fill="rgb(0%, 0%, 0%)" d="M 223.613281 66.726562 C 220.179688 66.726562 217.386719 69.511719 217.386719 72.945312 L 217.386719 113.84375 C 217.386719 117.277344 220.179688 120.0625 223.613281 120.0625 C 227.050781 120.0625 229.839844 117.277344 229.839844 113.84375 L 229.839844 72.945312 C 229.839844 69.511719 227.050781 66.726562 223.613281 66.726562 Z M 223.613281 66.726562 " fill-opacity="1" fill-rule="nonzero"/><path fill="rgb(0%, 0%, 0%)" d="M 247.6875 27.058594 C 244.253906 27.058594 241.460938 29.84375 241.460938 33.28125 L 241.460938 153.511719 C 241.460938 156.945312 244.253906 159.730469 247.6875 159.730469 C 251.125 159.730469 253.914062 156.945312 253.914062 153.511719 L 253.914062 33.28125 C 253.914062 29.84375 251.128906 27.058594 247.6875 27.058594 Z M 247.6875 27.058594 " fill-opacity="1" fill-rule="nonzero"/><path fill="rgb(0%, 0%, 0%)" d="M 271.765625 49.976562 C 268.328125 49.976562 265.539062 52.757812 265.539062 56.195312 L 265.539062 130.589844 C 265.539062 134.027344 268.328125 136.8125 271.765625 136.8125 C 275.203125 136.8125 277.992188 134.027344 277.992188 130.589844 L 277.992188 56.195312 C 277.992188 52.757812 275.203125 49.976562 271.765625 49.976562 Z M 271.765625 49.976562 " fill-opacity="1" fill-rule="nonzero"/><path fill="rgb(0%, 0%, 0%)" d="M 295.839844 71.09375 C 292.402344 71.09375 289.613281 73.878906 289.613281 77.316406 L 289.613281 109.472656 C 289.613281 112.910156 292.402344 115.691406 295.839844 115.691406 C 299.277344 115.691406 302.066406 112.910156 302.066406 109.472656 L 302.066406 77.316406 C 302.066406 73.878906 299.277344 71.09375 295.839844 71.09375 Z M 295.839844 71.09375 " fill-opacity="1" fill-rule="nonzero"/><path fill="rgb(0%, 0%, 0%)" d="M 319.917969 20.058594 C 316.480469 20.058594 313.691406 22.84375 313.691406 26.28125 L 313.691406 160.507812 C 313.691406 163.945312 316.480469 166.726562 319.917969 166.726562 C 323.355469 166.726562 326.144531 163.945312 326.144531 160.507812 L 326.144531 26.28125 C 326.144531 22.84375 323.355469 20.058594 319.917969 20.058594 Z M 319.917969 20.058594 " fill-opacity="1" fill-rule="nonzero"/><path fill="rgb(0%, 0%, 0%)" d="M 343.992188 58.242188 C 340.554688 58.242188 337.765625 61.027344 337.765625 64.460938 L 337.765625 122.324219 C 337.765625 125.761719 340.554688 128.546875 343.992188 128.546875 C 347.429688 128.546875 350.21875 125.761719 350.21875 122.324219 L 350.21875 64.460938 C 350.21875 61.027344 347.429688 58.242188 343.992188 58.242188 Z M 343.992188 58.242188 " fill-opacity="1" fill-rule="nonzero"/><g clip-path="url(#clip-2)"><path fill="rgb(0%, 0%, 0%)" d="M 368.070312 82.632812 C 364.632812 82.632812 361.84375 85.414062 361.84375 88.851562 L 361.84375 97.9375 C 361.84375 101.375 364.632812 104.15625 368.070312 104.15625 C 371.503906 104.15625 374.292969 101.375 374.292969 97.9375 L 374.292969 88.851562 C 374.292969 85.414062 371.503906 82.632812 368.070312 82.632812 Z M 368.070312 82.632812 " fill-opacity="1" fill-rule="nonzero"/></g></svg>