<svg xmlns="http://www.w3.org/2000/svg" width="375" viewBox="0 0 375 375" height="375" version="1.0"><defs><clipPath id="a"><path d="M 36.667969 54 L 287 54 L 287 216 L 36.667969 216 Z M 36.667969 54"/></clipPath><clipPath id="b"><path d="M 36.667969 88 L 287 88 L 287 185 L 36.667969 185 Z M 36.667969 88"/></clipPath></defs><path fill="#7BE4A3" d="M 153.625 136.292969 C 153.625 136.292969 201.195312 131.65625 220.425781 170.207031 C 239.390625 207.839844 258.425781 201.882812 269.4375 173.714844 C 284.222656 135.882812 337.949219 136.292969 337.949219 136.292969 C 337.949219 136.292969 337.183594 136.292969 335.816406 136.292969 C 309.523438 135.519531 285.773438 122.773438 273.898438 103.199219 C 259.46875 79.351562 242.101562 57.070312 220.425781 102.304688 C 203.171875 139.695312 153.625 136.292969 153.625 136.292969 Z M 153.625 136.292969"/><g clip-path="url(#a)"><path fill="#7BD1E7" d="M 36.886719 136.242188 C 36.886719 136.242188 99.617188 131.785156 125.644531 184.007812 C 149.675781 230.351562 177.917969 221.199219 193.730469 186.921875 C 220.386719 129.019531 286.484375 136.257812 286.484375 136.257812 C 286.484375 136.257812 285.460938 136.257812 283.617188 136.214844 C 247.980469 135.203125 215.007812 123.328125 199.0625 96.726562 C 176.367188 58.867188 155.015625 27.691406 125.644531 88.929688 C 102.320312 139.582031 36.886719 136.242188 36.886719 136.242188 Z M 36.886719 136.242188"/></g><g clip-path="url(#b)"><path fill="#3A2AB4" d="M 36.886719 136.242188 C 36.886719 136.242188 99.617188 131.785156 125.644531 184.007812 C 146.34375 131.113281 199.0625 143.914062 213.75 159.507812 C 237.777344 136.117188 286.453125 136.257812 286.453125 136.257812 C 286.453125 136.257812 237.742188 136.8125 213.75 113.425781 C 199.0625 129.019531 146.34375 141.824219 125.644531 88.929688 C 102.320312 139.582031 36.886719 136.242188 36.886719 136.242188 Z M 36.886719 136.242188"/></g><g fill="#3A2AB4"><g><g><path d="M 25.171875 1.164062 C 34.609375 1.164062 43.910156 -2.121094 48.699219 -14.980469 L 37.207031 -18.605469 C 34.0625 -11.21875 29.617188 -10.191406 25.171875 -10.191406 C 16.824219 -10.191406 12.585938 -17.097656 12.585938 -24.007812 C 12.585938 -30.847656 16.757812 -37.6875 25.171875 -37.6875 C 29.546875 -37.6875 34.335938 -36.183594 37.550781 -28.933594 L 48.425781 -32.761719 C 44.527344 -45.140625 34.472656 -49.109375 25.171875 -49.109375 C 10.191406 -49.109375 -0.480469 -38.644531 -0.480469 -24.074219 C -0.480469 -9.4375 10.191406 1.164062 25.171875 1.164062 Z M 25.171875 1.164062" transform="translate(12.466 292.213)"/></g></g></g><g fill="#3A2AB4"><g><g><path d="M 10.875 0 L 22.640625 0 L 22.640625 -47.878906 L 11.148438 -47.878906 L -2.941406 -33.925781 L 4.242188 -26.128906 L 10.875 -31.804688 Z M 10.875 0" transform="translate(69.714 292.213)"/></g></g></g><g fill="#3A2AB4"><g><g><path d="M 21.957031 0.890625 C 33.652344 0.890625 45.484375 -4.582031 45.484375 -16.894531 L 45.484375 -32.078125 C 45.414062 -40.082031 38.984375 -45.414062 31.667969 -47.742188 C 28.933594 -48.628906 25.992188 -48.835938 23.253906 -48.835938 C 20.519531 -48.835938 17.578125 -48.5625 14.707031 -47.671875 C 4.855469 -44.730469 0.753906 -37.414062 0.753906 -31.050781 C 0.753906 -19.289062 12.242188 -14.636719 21.75 -14.636719 C 27.015625 -14.636719 30.367188 -16.210938 33.445312 -19.355469 L 33.445312 -17.234375 C 33.378906 -12.3125 27.769531 -10.121094 21.75 -10.121094 C 16.757812 -10.121094 11.421875 -11.695312 8.824219 -14.5 L 1.4375 -6.839844 C 5.335938 -1.847656 13.609375 0.890625 21.957031 0.890625 Z M 23.1875 -25.375 C 16.484375 -25.375 13.0625 -28.660156 13.0625 -31.804688 C 13.0625 -34.949219 16.347656 -38.097656 23.253906 -38.097656 C 29.890625 -38.097656 33.378906 -34.8125 33.378906 -31.53125 C 33.378906 -28.453125 30.164062 -25.375 23.1875 -25.375 Z M 23.1875 -25.375" transform="translate(103.64 292.213)"/></g></g></g><g fill="#3A2AB4"><g><g><path d="M 0.136719 -17.097656 L 26.539062 -17.097656 L 26.539062 -27.835938 L 0.136719 -27.835938 Z M 0.136719 -17.097656" transform="translate(162.598 292.213)"/></g></g></g><g fill="#3A2AB4"><g><g><path d="M 25.171875 1.164062 C 34.609375 1.164062 43.910156 -2.121094 48.699219 -14.980469 L 37.207031 -18.605469 C 34.0625 -11.21875 29.617188 -10.191406 25.171875 -10.191406 C 16.824219 -10.191406 12.585938 -17.097656 12.585938 -24.007812 C 12.585938 -30.847656 16.757812 -37.6875 25.171875 -37.6875 C 29.546875 -37.6875 34.335938 -36.183594 37.550781 -28.933594 L 48.425781 -32.761719 C 44.527344 -45.140625 34.472656 -49.109375 25.171875 -49.109375 C 10.191406 -49.109375 -0.480469 -38.644531 -0.480469 -24.074219 C -0.480469 -9.4375 10.191406 1.164062 25.171875 1.164062 Z M 25.171875 1.164062" transform="translate(200.217 292.213)"/></g></g></g><g fill="#3A2AB4"><g><g><path d="M 24.007812 1.230469 C 26.949219 1.230469 29.546875 1.027344 31.53125 0.617188 C 39.875 -0.957031 47.535156 -6.222656 47.535156 -15.117188 C 47.535156 -27.90625 34.265625 -29.683594 21.203125 -29.820312 C 16.894531 -30.027344 12.925781 -30.230469 12.925781 -33.445312 C 12.859375 -36.59375 17.785156 -38.097656 22.707031 -38.097656 C 28.523438 -38.097656 33.71875 -36.523438 33.789062 -32.351562 L 46.304688 -32.351562 C 46.097656 -46.238281 33.378906 -49.039062 23.460938 -49.039062 C 13.816406 -49.039062 0 -46.238281 0 -33.105469 C 0 -20.585938 12.039062 -19.425781 20.996094 -19.015625 L 23.527344 -19.015625 C 28.042969 -19.015625 34.609375 -18.671875 34.609375 -14.636719 C 34.609375 -10.53125 26.605469 -9.917969 23.871094 -9.917969 C 19.492188 -9.984375 13.472656 -10.464844 12.105469 -16.894531 L -0.753906 -16.894531 C 0.273438 -2.050781 13.679688 1.230469 24.007812 1.230469 Z M 24.007812 1.230469" transform="translate(257.466 292.213)"/></g></g></g><g fill="#3A2AB4"><g><g><path d="M 15.457031 0 L 28.316406 0 L 28.316406 -37.140625 L 45.484375 -37.140625 L 45.484375 -47.878906 L -1.710938 -47.878906 L -1.710938 -37.140625 L 15.457031 -37.140625 Z M 15.457031 0" transform="translate(315.261 292.213)"/></g></g></g><g fill="#545454"><g><g><path d="M 4.320312 0.191406 C 5.871094 0.191406 7.347656 -0.507812 8.121094 -2.394531 L 6.761719 -2.824219 C 6.234375 -1.574219 5.242188 -1.171875 4.320312 -1.171875 C 2.789062 -1.171875 1.722656 -2.351562 1.722656 -3.960938 C 1.722656 -5.570312 2.789062 -6.703125 4.320312 -6.703125 C 5.230469 -6.703125 6.234375 -6.34375 6.761719 -5.117188 L 8.054688 -5.578125 C 7.402344 -7.390625 5.851562 -8.078125 4.320312 -8.078125 C 1.878906 -8.078125 0.125 -6.355469 0.125 -3.960938 C 0.125 -1.5625 1.878906 0.191406 4.320312 0.191406 Z M 4.320312 0.191406" transform="translate(6.39 324.615)"/></g></g></g><g fill="#545454"><g><g><path d="M 4.355469 0.113281 C 6.773438 0.113281 8.503906 -1.585938 8.503906 -3.972656 C 8.503906 -6.34375 6.773438 -8.03125 4.355469 -8.03125 C 1.957031 -8.03125 0.203125 -6.34375 0.203125 -3.972656 C 0.203125 -1.585938 1.957031 0.113281 4.355469 0.113281 Z M 4.355469 -1.226562 C 2.835938 -1.226562 1.777344 -2.394531 1.777344 -3.972656 C 1.777344 -5.546875 2.835938 -6.703125 4.355469 -6.703125 C 5.882812 -6.703125 6.941406 -5.546875 6.941406 -3.972656 C 6.941406 -2.394531 5.882812 -1.226562 4.355469 -1.226562 Z M 4.355469 -1.226562" transform="translate(23.108 324.615)"/></g></g></g><g fill="#545454"><g><g><path d="M 4.601562 0.125 C 6.613281 0.125 8.628906 -1.316406 8.628906 -4.195312 L 8.628906 -7.875 L 7.066406 -7.875 L 7.066406 -4.195312 C 7.054688 -2.195312 5.816406 -1.191406 4.589844 -1.191406 C 3.363281 -1.191406 2.113281 -2.195312 2.113281 -4.195312 L 2.113281 -7.875 L 0.550781 -7.875 L 0.550781 -4.195312 C 0.550781 -1.316406 2.578125 0.125 4.601562 0.125 Z M 4.601562 0.125" transform="translate(40.556 324.615)"/></g></g></g><g fill="#545454"><g><g><path d="M 4.332031 0.15625 C 5.851562 0.15625 7.390625 -0.382812 8.042969 -2.003906 L 8.042969 -4.511719 L 3.859375 -4.511719 L 3.859375 -3.238281 L 6.648438 -3.238281 L 6.648438 -2.261719 C 6.242188 -1.417969 5.1875 -1.191406 4.332031 -1.191406 C 2.789062 -1.191406 1.734375 -2.328125 1.734375 -3.925781 C 1.734375 -5.523438 2.789062 -6.671875 4.332031 -6.671875 C 5.1875 -6.671875 6.109375 -6.390625 6.660156 -5.332031 L 7.953125 -5.769531 C 7.265625 -7.425781 5.792969 -8.054688 4.332031 -8.054688 C 1.902344 -8.054688 0.144531 -6.3125 0.144531 -3.914062 C 0.144531 -1.496094 1.902344 0.15625 4.332031 0.15625 Z M 4.332031 0.15625" transform="translate(58.5 324.615)"/></g></g></g><g fill="#545454"><g><g><path d="M 0.5625 0 L 2.136719 0 L 2.136719 -3.261719 L 6.378906 -3.261719 L 6.378906 0 L 7.941406 0 L 7.941406 -7.875 L 6.378906 -7.875 L 6.378906 -4.613281 L 2.136719 -4.613281 L 2.136719 -7.875 L 0.5625 -7.875 Z M 0.5625 0" transform="translate(75.713 324.615)"/></g></g></g><g fill="#545454"><g><g><path d="M 4.117188 0.191406 C 4.613281 0.191406 5.050781 0.15625 5.410156 0.0898438 C 6.761719 -0.15625 8 -0.988281 8 -2.363281 C 8 -4.34375 5.792969 -4.625 3.621094 -4.644531 C 2.65625 -4.691406 1.765625 -4.792969 1.765625 -5.578125 C 1.765625 -6.683594 3.476562 -6.796875 4.027344 -6.796875 C 4.816406 -6.796875 6.121094 -6.570312 6.210938 -5.546875 L 7.761719 -5.703125 C 7.648438 -7.695312 5.691406 -8.042969 4.0625 -8.042969 C 2.453125 -8.042969 0.15625 -7.617188 0.15625 -5.546875 C 0.15625 -3.644531 2.125 -3.453125 3.601562 -3.386719 L 4.128906 -3.363281 C 5.199219 -3.320312 6.480469 -3.238281 6.390625 -2.195312 C 6.3125 -1.28125 4.703125 -1.125 4.09375 -1.125 C 3.09375 -1.125 1.722656 -1.382812 1.609375 -2.585938 L 0.0546875 -2.394531 C 0.257812 -0.28125 2.417969 0.191406 4.117188 0.191406 Z M 4.117188 0.191406" transform="translate(104.4 324.615)"/></g></g></g><g fill="#545454"><g><g><path d="M 4.355469 0.113281 C 6.773438 0.113281 8.503906 -1.585938 8.503906 -3.972656 C 8.503906 -6.34375 6.773438 -8.03125 4.355469 -8.03125 C 1.957031 -8.03125 0.203125 -6.34375 0.203125 -3.972656 C 0.203125 -1.585938 1.957031 0.113281 4.355469 0.113281 Z M 4.355469 -1.226562 C 2.835938 -1.226562 1.777344 -2.394531 1.777344 -3.972656 C 1.777344 -5.546875 2.835938 -6.703125 4.355469 -6.703125 C 5.882812 -6.703125 6.941406 -5.546875 6.941406 -3.972656 C 6.941406 -2.394531 5.882812 -1.226562 4.355469 -1.226562 Z M 4.355469 -1.226562" transform="translate(121.208 324.615)"/></g></g></g><g fill="#545454"><g><g><path d="M 4.601562 0.125 C 6.613281 0.125 8.628906 -1.316406 8.628906 -4.195312 L 8.628906 -7.875 L 7.066406 -7.875 L 7.066406 -4.195312 C 7.054688 -2.195312 5.816406 -1.191406 4.589844 -1.191406 C 3.363281 -1.191406 2.113281 -2.195312 2.113281 -4.195312 L 2.113281 -7.875 L 0.550781 -7.875 L 0.550781 -4.195312 C 0.550781 -1.316406 2.578125 0.125 4.601562 0.125 Z M 4.601562 0.125" transform="translate(138.657 324.615)"/></g></g></g><g fill="#545454"><g><g><path d="M 0.5625 0 L 2.09375 0 L 2.09375 -4.667969 L 1.945312 -5.917969 L 2.003906 -5.929688 L 2.6875 -4.847656 L 6.785156 0 L 8.3125 0 L 8.3125 -7.875 L 6.804688 -7.875 L 6.804688 -3.410156 L 6.941406 -1.921875 L 6.90625 -1.914062 L 6.042969 -3.140625 L 1.957031 -7.875 L 0.5625 -7.875 Z M 0.5625 0" transform="translate(156.6 324.615)"/></g></g></g><g fill="#545454"><g><g><path d="M 0.449219 0 L 4.140625 0 C 6.492188 0 8.066406 -1.699219 8.078125 -3.949219 C 8.078125 -6.199219 6.480469 -7.898438 4.140625 -7.898438 L 0.449219 -7.898438 Z M 2.046875 -1.328125 L 2.046875 -6.546875 L 4.164062 -6.546875 C 5.601562 -6.546875 6.515625 -5.367188 6.515625 -3.890625 C 6.515625 -2.429688 5.578125 -1.328125 4.164062 -1.328125 Z M 2.046875 -1.328125" transform="translate(174.173 324.615)"/></g></g></g><g fill="#545454"><g><g><path d="M -0.257812 0 L 1.417969 0 L 2.386719 -1.890625 L 6.421875 -1.890625 L 7.390625 0 L 9.113281 0 L 5.117188 -7.921875 L 3.757812 -7.921875 Z M 3.039062 -3.195312 L 3.859375 -4.871094 L 4.445312 -6.34375 L 4.984375 -4.894531 L 5.769531 -3.195312 Z M 3.039062 -3.195312" transform="translate(202.602 324.615)"/></g></g></g><g fill="#545454"><g><g><path d="M 0.5625 0 L 2.125 0 L 2.125 -7.875 L 0.5625 -7.875 Z M 0.5625 0" transform="translate(220.13 324.615)"/></g></g></g><g fill="#545454"><g><g><path d="M -0.257812 0 L 1.417969 0 L 2.386719 -1.890625 L 6.421875 -1.890625 L 7.390625 0 L 9.113281 0 L 5.117188 -7.921875 L 3.757812 -7.921875 Z M 3.039062 -3.195312 L 3.859375 -4.871094 L 4.445312 -6.34375 L 4.984375 -4.894531 L 5.769531 -3.195312 Z M 3.039062 -3.195312" transform="translate(243 324.615)"/></g></g></g><g fill="#545454"><g><g><path d="M 0.5625 0 L 2.09375 0 L 2.09375 -4.667969 L 1.945312 -5.917969 L 2.003906 -5.929688 L 2.6875 -4.847656 L 6.785156 0 L 8.3125 0 L 8.3125 -7.875 L 6.804688 -7.875 L 6.804688 -3.410156 L 6.941406 -1.921875 L 6.90625 -1.914062 L 6.042969 -3.140625 L 1.957031 -7.875 L 0.5625 -7.875 Z M 0.5625 0" transform="translate(260.528 324.615)"/></g></g></g><g fill="#545454"><g><g><path d="M -0.257812 0 L 1.417969 0 L 2.386719 -1.890625 L 6.421875 -1.890625 L 7.390625 0 L 9.113281 0 L 5.117188 -7.921875 L 3.757812 -7.921875 Z M 3.039062 -3.195312 L 3.859375 -4.871094 L 4.445312 -6.34375 L 4.984375 -4.894531 L 5.769531 -3.195312 Z M 3.039062 -3.195312" transform="translate(278.101 324.615)"/></g></g></g><g fill="#545454"><g><g><path d="M 0.550781 0 L 6.839844 0 L 6.839844 -1.351562 L 2.136719 -1.351562 L 2.136719 -7.875 L 0.550781 -7.875 Z M 0.550781 0" transform="translate(295.629 324.615)"/></g></g></g><g fill="#545454"><g><g><path d="M 3.363281 0 L 4.9375 0 L 4.9375 -3.070312 L 8.605469 -7.875 L 6.785156 -7.875 L 4.152344 -4.386719 L 1.53125 -7.875 L -0.292969 -7.875 L 3.363281 -3.070312 Z M 3.363281 0" transform="translate(311.221 324.615)"/></g></g></g><g fill="#545454"><g><g><path d="M 0.394531 0 L 7.707031 0 L 7.707031 -1.382812 L 1.945312 -1.382812 L 3.328125 -2.519531 L 7.773438 -6.738281 L 7.367188 -7.851562 L 0.269531 -7.851562 L 0.269531 -6.480469 L 5.679688 -6.480469 L 4.171875 -5.265625 L -0.078125 -1.191406 Z M 0.394531 0" transform="translate(328.299 324.615)"/></g></g></g><g fill="#545454"><g><g><path d="M 0.550781 0 L 6.851562 0 L 6.851562 -1.339844 L 2.058594 -1.339844 L 2.058594 -3.285156 L 6.660156 -3.285156 L 6.660156 -4.578125 L 2.058594 -4.578125 L 2.058594 -6.535156 L 6.851562 -6.535156 L 6.851562 -7.875 L 0.550781 -7.875 Z M 0.550781 0" transform="translate(344.701 324.615)"/></g></g></g><g fill="#545454"><g><g><path d="M 0.5625 0 L 2.125 0 L 2.125 -2.867188 L 3.578125 -2.867188 L 6.0625 0 L 7.828125 0 L 7.828125 -0.0664062 L 5.34375 -2.914062 C 5.960938 -2.949219 6.421875 -3.105469 6.816406 -3.410156 C 7.402344 -3.882812 7.738281 -4.636719 7.738281 -5.332031 C 7.738281 -6.03125 7.425781 -6.773438 6.875 -7.222656 C 6.234375 -7.730469 5.320312 -7.875 4.636719 -7.875 L 0.5625 -7.875 Z M 2.125 -4.152344 L 2.125 -6.546875 L 4.636719 -6.546875 C 5.488281 -6.546875 6.175781 -6.242188 6.175781 -5.34375 C 6.175781 -4.511719 5.660156 -4.152344 4.746094 -4.152344 Z M 2.125 -4.152344" transform="translate(360.485 324.615)"/></g></g></g></svg>